/* XPM */
static char *player_31690047454[] = {
/* columns rows colors chars-per-pixel */
"32 32 15 1 ",
"  c None",
". c black",
"X c #6B153A",
"o c #382944",
"O c #AC1309",
"+ c #B9150B",
"@ c #C6180D",
"# c #BB5E00",
"$ c #E76D52",
"% c #F77A5E",
"& c #EF9E1B",
"* c #FFC809",
"= c #FB8A70",
"- c #847E87",
"; c white",
/* pixels */
"          .... .  ....          ",
"        ..****.X..****..        ",
"       .**&&**#X.#**&&**.       ",
"      .**&&&&#.X..#&&&&**.      ",
"     .&&&&.....X. ....&&&&.     ",
"      ....    .X.     ....      ",
"             ..XX.....          ",
"          ...+.X.++OOO..        ",
"         .+++@+.+@@+OOOO.       ",
"        .=$+@@@@@@@@+OOOO.      ",
"       .=$%%+@@@@@@@+OOOO.      ",
"       .=$%$+@@@@OO@@+OOOO.     ",
"       .=$%%+@@@@OO@@+OOOO.     ",
"      .=$%%%+@@@@@@@@@+OOOO.    ",
"      .$%%%+@@@@@@@O@@@++++.    ",
"      .$%$+@@@@@@@@@@@@@@@@.    ",
"     .$%%%++..+@@@@@@@+..+@.    ",
"    .$%%$++...;+@@@@@+...;+.    ",
"    .=%++@+....+@@@@@+....+.    ",
"    .++@@@@+++++-o-o-+++++@.    ",
"    .++@@@@@@@+.;.;.;.+@@@@.    ",
"    .+@@@@@@@@+.......+@@@.     ",
"    .+@@@@@@@@+.......+@@@.     ",
"     .+@@@@@@@+.......+@@.      ",
"     .+@@+++@@+o;o;o;o+@@.      ",
"      .++OOO+@@+++++++@@.       ",
"       .OOOOO+@@@@@@@@@.        ",
"        ..OOOO+@@@@@@..         ",
"          ..OOO++++..           ",
"            .......             ",
"                                ",
"                                "
};
