/* XPM */
static char *_f4a6545a44c4453a5076476b099c438kwzI0CTNyUeyc7oj[] = {
/* columns rows colors chars-per-pixel */
"32 32 14 1 ",
"  c None",
". c #430C2E",
"X c #642644",
"o c #C5312E",
"O c #F19A76",
"+ c #0C1C98",
"@ c #012DB3",
"# c #154FD8",
"$ c #1468FC",
"% c #4A83FB",
"& c #FFD5BD",
"* c #E4B1D2",
"= c #FFE7F7",
"- c #FFEFF7",
/* pixels */
"                                ",
"            #####               ",
"          ##$%$$$##             ",
"         #$$$$$%$$$# ++++       ",
"        #$$$%$$$$$--+@@@@+      ",
"       #####$$$---++@@@@@@+     ",
"           #---$$#OOO@@@++      ",
"       ####$$$$$#*&**O++        ",
"      #$$$$$$$##-*&*--O         ",
"       #######&-.&&&.-O         ",
"           *O&&.X&ooX.O         ",
"            *&&&&&oo&&O         ",
"            **&&**oo***         ",
"            *-**----=-*         ",
"            *-=--=--=-*         ",
"           #$*=--=-=-*          ",
"          #$$*-=----=-*         ",
"          #$$$*=--=-=-*         ",
"          #$$%$*-=--**          ",
"         #%$$$$*-=-=*#          ",
"         #$$$$$$*=*=*#          ",
"         #$$$$$%$*$*$#          ",
"         #$$%$%%%$$$$$#         ",
"         #$$$$$%$$$$$%#         ",
"         #$$$$$$$$%$$$#         ",
"         #$$$%$$$$$$$$#         ",
"      # #$$$$$$$$$$$$$#         ",
"     #$#$$$$$$$$$$$$$$#         ",
"      ################          ",
"                                ",
"                                ",
"                                "
};
