/* XPM */
static char * collectible_2_xpm[] = {
"32 32 246 2",
"  	c None",
". 	c #00000E",
"+ 	c #00000F",
"@ 	c #5B2200",
"# 	c #5F2C14",
"$ 	c #602F1A",
"% 	c #5D2B15",
"& 	c #000000",
"* 	c #4A0000",
"= 	c #9A4300",
"- 	c #B1581C",
"; 	c #B25D2A",
"> 	c #9D4F1C",
", 	c #520000",
"' 	c #596D78",
") 	c #817C80",
"! 	c #B89089",
"~ 	c #CD9788",
"{ 	c #C98F7E",
"] 	c #B08074",
"^ 	c #76696C",
"/ 	c #485A65",
"( 	c #646F78",
"_ 	c #ABC4D1",
": 	c #C4DCEA",
"< 	c #CBDBE7",
"[ 	c #C8D2DC",
"} 	c #BABDC6",
"| 	c #AFB3BD",
"1 	c #A8B7C4",
"2 	c #92A4B1",
"3 	c #575D65",
"4 	c #5B626A",
"5 	c #A7BDC9",
"6 	c #C4E0EF",
"7 	c #C7E6F6",
"8 	c #C1E0F0",
"9 	c #B2CDDD",
"0 	c #A9C0CF",
"a 	c #A7BBC9",
"b 	c #8E9DA8",
"c 	c #4E5159",
"d 	c #1B0000",
"e 	c #2E262C",
"f 	c #474B51",
"g 	c #78858F",
"h 	c #A8BDCA",
"i 	c #B8CFDE",
"j 	c #B4CAD8",
"k 	c #9FB1BE",
"l 	c #69727B",
"m 	c #332B32",
"n 	c #27171E",
"o 	c #20030C",
"p 	c #220911",
"q 	c #444449",
"r 	c #717E88",
"s 	c #9EB3C2",
"t 	c #AFC8D8",
"u 	c #B0CADA",
"v 	c #A1B7C5",
"w 	c #77858E",
"x 	c #4C4E52",
"y 	c #271519",
"z 	c #4D4F55",
"A 	c #A4B7C3",
"B 	c #BAD5E4",
"C 	c #ADD0E2",
"D 	c #A6CDE1",
"E 	c #A6CDE2",
"F 	c #AFD1E3",
"G 	c #BED8E6",
"H 	c #A8BAC5",
"I 	c #4F5257",
"J 	c #555A60",
"K 	c #85959F",
"L 	c #BDD8E7",
"M 	c #C8EBFC",
"N 	c #B1DAEE",
"O 	c #A4D1E6",
"P 	c #A5D1E6",
"Q 	c #AFD8ED",
"R 	c #C1E5FA",
"S 	c #B5D3E4",
"T 	c #83949F",
"U 	c #5A5E62",
"V 	c #53575E",
"W 	c #A9BDC9",
"X 	c #BDD9E8",
"Y 	c #B5D9EB",
"Z 	c #AFD8EC",
"` 	c #ACD5E9",
" .	c #ABD4E8",
"..	c #ADD5E8",
"+.	c #A2CFE6",
"@.	c #88BFE0",
"#.	c #92C2E0",
"$.	c #B8D5E6",
"%.	c #AFC1CB",
"&.	c #585B60",
"*.	c #53585E",
"=.	c #80919B",
"-.	c #BBD7E5",
";.	c #C9EBFC",
">.	c #B0D8EC",
",.	c #A1CDE3",
"'.	c #9DCBE3",
").	c #9DCAE3",
"!.	c #9FCCE4",
"~.	c #8FC2DE",
"{.	c #5CA9D2",
"].	c #73B4DB",
"^.	c #B6DEF6",
"/.	c #B7D4E4",
"(.	c #80919C",
"_.	c #565C62",
":.	c #626B73",
"<.	c #A7BCC8",
"[.	c #B9D5E4",
"}.	c #B4D8EB",
"|.	c #AED6E9",
"1.	c #A0CDE4",
"2.	c #81BADB",
"3.	c #70B1D7",
"4.	c #74B3D8",
"5.	c #6FB1D7",
"6.	c #60AAD3",
"7.	c #63ACD5",
"8.	c #78B7DC",
"9.	c #95C4E1",
"0.	c #B4D2E4",
"a.	c #ACC1CC",
"b.	c #656E75",
"c.	c #667078",
"d.	c #BCD5E3",
"e.	c #CFEFFF",
"f.	c #B1D9ED",
"g.	c #9FCCE3",
"h.	c #A0CCE3",
"i.	c #91C3DF",
"j.	c #6CAFD6",
"k.	c #53A5D1",
"l.	c #58A7D2",
"m.	c #5DA9D3",
"n.	c #62ABD4",
"o.	c #5AA8D3",
"p.	c #42A1CF",
"q.	c #7BB8DC",
"r.	c #C1E3F7",
"s.	c #BBD1DD",
"t.	c #666E75",
"u.	c #666F77",
"v.	c #BAD2DF",
"w.	c #CCEBFC",
"x.	c #B2D9EC",
"y.	c #98C8E1",
"z.	c #7FB9DA",
"A.	c #6CB0D6",
"B.	c #63ABD4",
"C.	c #5EA9D3",
"D.	c #5FAAD3",
"E.	c #60AAD4",
"F.	c #5CA9D4",
"G.	c #4BA5D3",
"H.	c #74B2D7",
"I.	c #AECCE0",
"J.	c #A8B9C4",
"K.	c #5D6269",
"L.	c #656F77",
"M.	c #B9D1DE",
"N.	c #CEEDFD",
"O.	c #BCDFF0",
"P.	c #4EA4D1",
"Q.	c #5BA9D3",
"R.	c #60ABD4",
"S.	c #5FABD4",
"T.	c #5FAAD4",
"U.	c #5DAAD4",
"V.	c #6DADD4",
"W.	c #87B6D4",
"X.	c #A9C3D5",
"Y.	c #9EADB8",
"Z.	c #585B62",
"`.	c #BAD4E2",
" +	c #D6F4FF",
".+	c #CDEAF9",
"++	c #B3D7EC",
"@+	c #77B6DA",
"#+	c #48A3D2",
"$+	c #54A7D3",
"%+	c #5AA9D4",
"&+	c #57A9D4",
"*+	c #51A8D5",
"=+	c #6DADD3",
"-+	c #95B8D1",
";+	c #AAC2D3",
">+	c #B5CBDA",
",+	c #9FB1BD",
"'+	c #575C64",
")+	c #606A72",
"!+	c #A4BAC7",
"~+	c #C0DAE7",
"{+	c #CFE9F7",
"]+	c #C3E2F4",
"^+	c #91C0DE",
"/+	c #70ADD2",
"(+	c #76B0D4",
"_+	c #79B2D5",
":+	c #77B2D5",
"<+	c #74B1D5",
"[+	c #88B6D5",
"}+	c #B2C2CD",
"|+	c #A5B6C2",
"1+	c #8D9CA8",
"2+	c #535860",
"3+	c #51565E",
"4+	c #83939D",
"5+	c #C1DBE9",
"6+	c #CFECFC",
"7+	c #B3CFE1",
"8+	c #A3BFD3",
"9+	c #A6C2D5",
"0+	c #A7C3D6",
"a+	c #A6C3D6",
"b+	c #ABC6D8",
"c+	c #B6CCDB",
"d+	c #707A83",
"e+	c #47484F",
"f+	c #525960",
"g+	c #A6BDC9",
"h+	c #B6CEDB",
"i+	c #A6B8C3",
"j+	c #9EACB6",
"k+	c #9FAEB8",
"l+	c #A0AEB9",
"m+	c #A0B0BB",
"n+	c #A0B2BE",
"o+	c #616B73",
"p+	c #636C74",
"q+	c #5C6168",
"r+	c #595C62",
"s+	c #595C63",
"t+	c #595D63",
"u+	c #5A5D63",
"v+	c #595D64",
"w+	c #585D65",
"                                                                ",
"                                                                ",
"                                                                ",
"                                                                ",
"                                                                ",
"                                                                ",
"                            . + + .                             ",
"                            @ # $ %                             ",
"                        & * = - ; > , &                         ",
"                        ' ) ! ~ { ] ^ /                         ",
"                    & ( _ : < [ } | 1 2 3 &                     ",
"                    & 4 5 6 7 8 9 0 a b c &                     ",
"                    d e f g h i j k l m n o                     ",
"                    & p q r s t u v w x y &                     ",
"                    & z A B C D E F G H I &                     ",
"                    J K L M N O P Q R S T U                     ",
"                & V W X Y Z `  ...+.@.#.$.%.&.&                 ",
"                *.=.-.;.>.,.'.).!.~.{.].^./.(._.                ",
"            & :.<.[.}.>.|.1.2.3.4.5.6.7.8.9.0.a.b.&             ",
"            & c.d.e.f.g.h.i.j.k.l.m.n.o.p.q.r.s.t.&             ",
"            & u.v.w.x.y.z.A.B.C.D.E.n.F.G.H.I.J.K.&             ",
"            & L.M.N.O.!.5.P.Q.R.S.T.U.n.V.W.X.Y.Z.&             ",
"            & L.`. +.+++@+#+$+%+%+&+*+=+-+;+>+,+'+&             ",
"            & )+!+~+{+]+^+/+(+_+_+:+<+[+;+}+|+1+2+&             ",
"                3+4+5+6+7+8+9+0+0+0+a+b+c+|+d+e+                ",
"                & f+g+h+i+j+k+l+l+l+l+m+n+1+e+&                 ",
"                    o+p+q+r+s+t+t+t+u+v+w+2+                    ",
"                    & & & & & & & & & & & &                     ",
"                                                                ",
"                                                                ",
"                                                                ",
"                                                                "};
