/* XPM */
static char *ecef8aa1aaa3432f8c96e7885997e055uvCGj2BDw3I5qgzP[] = {
/* columns rows colors chars-per-pixel */
"32 32 8 1 ",
"  c #25131A",
". c #362030",
"X c #3D253B",
"o c #523B40",
"O c #895A45",
"+ c #BF704D",
"@ c #90919E",
"# c #ADC1CF",
/* pixels */
"XXXXXXXXXXXXXXXXXXXX............",
"XXXXXX++++XXXXXXXXXXXX++++XXXXXX",
"XXXXXX++++XXXXXXXXXXXX++++XXXXXX",
"XXXXXXOOOOXXXXXXXXXXXXOOOOXXXXXX",
"XXXXXXOOOOXXXXXXXXXXXXOOOOXXXXXX",
"XXXXXXOOOOXXXXXXXXXXXXOOOOXXXXXX",
"XXXXXXOOOOXXXXXXXXXXXXOOOOXXXXXX",
"....++@@##++++++++++++##@@++....",
"....++@@##++++++++++++##@@++....",
"....OOOOOOOOOOOOOOOOOOOOOOOO....",
"....OOOOOOOOOOOOOOOOOOOOOOOO....",
"..    oooo            oooo    ..",
"..    oooo            oooo    ..",
"..    OOOO            OOOO    ..",
"..    OOOO            OOOO    ..",
"..    OOOO            OOOO    ..",
"..    OOOO            OOOO    ..",
"..    OOOO            OOOO    ..",
"..    OOOO            OOOO    ..",
"..    OOOO            OOOO    ..",
"..    OOOO            OOOO    ..",
"..    OOOO            OOOO    ..",
"..    OOOO            OOOO    ..",
"..  ++@@##++++++++++++##@@++  ..",
"..  ++@@##++++++++++++##@@++  ..",
"..  OOOOOOOOOOOOOOOOOOOOOOOO  ..",
"..  OOOOOOOOOOOOOOOOOOOOOOOO  ..",
"..    oooo            oooo    ..",
"..    oooo            oooo    ..",
"..    OOOO            OOOO    ..",
"..    OOOO            OOOO    ..",
"................................"
};
