/* XPM */
static char *result[] = {
/* columns rows colors chars-per-pixel */
"32 32 36 1 ",
"  c #FF0D00",
". c #FF1500",
"X c #FF1D00",
"o c #FF2400",
"O c #FF2C00",
"+ c #FF3300",
"@ c #FF3B00",
"# c #FE4300",
"$ c #FE4C00",
"% c #FE5300",
"& c #FD5B00",
"* c #FD6400",
"= c #FD6C00",
"- c #FD7300",
"; c #FC7B00",
": c #FB8300",
"> c #FB8C00",
", c #FB9200",
"< c #FB9C00",
"1 c #FAA300",
"2 c #FAAB00",
"3 c #FBB300",
"4 c #F7BB00",
"5 c #FBBB00",
"6 c #F7C000",
"7 c #FAC300",
"8 c #F6CE00",
"9 c #FACB00",
"0 c #FAD300",
"q c #FADB00",
"w c #FAE500",
"e c #F5ED00",
"r c #F9EB00",
"t c #F9F000",
"y c #F9F800",
"u c None",
/* pixels */
"uuuuuuuuuuuuuuuuuuuuuuuuuuuOuuuu",
"uuuu@@uuuuuuuuuu;uuuuuuuuO%uuuuu",
"uuu+#&uuu:;uuuuu#uuuuuuuuO%uuuuu",
"uuu+@Ouuu&#uuuu+ou;-uuuuuu++uuuu",
"uuuu@*uu$Oou;uuO@uu*u#+uuu->o%uu",
"u&u+$2#+@O+uu*u&3%++uu%@@+1;.+uu",
"uu$o;<##X%2$.$3<2-$=ou1#o+:%-++u",
"uuO#$#>=,57>o@q1=:*-O#%+=>o-r-ou",
"u@=5>#o;w4,93%O2<>-$=#%$37>,79>#",
"u#314%+5222509.#-**-3-&&$<81<24-",
"u@254%$7<2221&$+++=r7&<1+-55u50-",
"u@;953&#372<#o%%$o>q,;w,&%37902%",
"u@+-7r1X$1w;$-o#-#<92<15=$3071$O",
"uu+$;:$@O@-$&=+@$O%1071:++%-*@+u",
"uuuu+o$%uuo@#%=#*@O@*;&O$uuOuuuu",
"uuuuu@+uuu@#@:3-&*@+Oouuuuuuuuuu",
"uuuuuu%*u@%#-r4&1<#@++uuuuuuuuuu",
"uu$&uo>,XO=->q<;q3>+&;O$uuuuuuuu",
"uuuu#%1#+@@&297,<9:O2;.Ouuuuuuuu",
"uuuo=;o&7#Oo$1972;OO-*-++u;+uuuu",
"uuu%-#$;r2.#++=;%O@; -y=o@@uu%uu",
"uu+-$.,2::+:>XXu+O$3-@1q,Oo.u7uu",
"uu@+Oo=e#&373*ou#:#>e%&31O%%u=uu",
"uu+o$2&o#9q,10:+@<%+%%u<&-22o uu",
"uu@<49>X@34137q=.+-&$%;*>0321$ou",
"uX:w4,92%O;02<:$O$31&&O#99,204-O",
"o%5221470+&w2:+$$5w;*5=$<<53173+",
"o*7<35<<9;&7q1#;=30;10,#=771:29*",
"u+&295><7:+$;=@#:702>43##30414:@",
"uuO$1972;+uuOuu++;503<%++$:3<=+u",
"uuu+@*;&Ouuuuuuu@O$;=@+uu++##Ouu",
"uuuuu+++uuuuuuuuuu+++uuuuuuuuuuu"
};
