/* XPM */
static char *result[] = {
/* columns rows colors chars-per-pixel */
"32 32 33 1 ",
"  c #FF0100",
". c #FF0E00",
"X c #FF1500",
"o c #FF1D00",
"O c #FF2400",
"+ c #FF2C00",
"@ c #FF3300",
"# c #FF3B00",
"$ c #FE4300",
"% c #FE4C00",
"& c #FD5400",
"* c #FD5B00",
"= c #FD6400",
"- c #FD6B00",
"; c #FD7400",
": c #FC7B00",
"> c #FB8400",
", c #FB8C00",
"< c #FB9200",
"1 c #FA9B00",
"2 c #FBA400",
"3 c #FAAB00",
"4 c #FAB300",
"5 c #FABB00",
"6 c #F7C100",
"7 c #FAC400",
"8 c #FACC00",
"9 c #F7D500",
"0 c #FAD300",
"q c #FADB00",
"w c #FAE200",
"e c #F9EB00",
"r c None",
/* pixels */
"rrrrrr##rrrrrrrrrrrrrrrrrrrrrrrr",
"rrrrr%@%rrrrrrrrrrrrrrrrrrrrrrrr",
"rrrrr>O+rrrrr:@rrrrrrrrrr*rrrrrr",
"rrrrr%+%rr&rr#rr=r@#rrrr$+rrrrrr",
"rrr&@o#3=+rr+OXr5+$*rrrr+or42rrr",
"rrr#@+*8*@@rX=&r-+#+rrrr@;$;%rrr",
"rrrO%3*X32O$-33O.r#=rr$&>8= #rrr",
"rr$158*o=<+1q432%o$3%o-0844:++rr",
"ro:w7,,3&o&88<52>:$>O+103,383$rr",
"O&5433078#=6<77<45+$@*817>;:2>or",
"o=64:<,28>%353:<58&*<%,6,o;;O;$r",
"r@=>%,+:8>+$7:;:::%26:X-&#-7:#rr",
"rr+O$7>#=$@@%+>>O+>91,;.:;#,,#rr",
"rr#>%*1-o@r#$&@#*%41344$&=#+%rrr",
"rr$>%o#%@@rr::o#**678q:@+=<==$rr",
"r#r@;**$#1*#%=$$&#=24;#@*57==>$r",
"r$$%42**&-$@+=<==$O##@=*;e2=q3*$",
"#&$5e:=5-+#$*67==,$o:;$:203<571$",
"$>-57;20<&**;e3=q1$%3=o@>70324&@",
"r$>841<54#$:28<<62:&#=6@o=14>%+r",
"r@@:604<#==o,57325$**,w3&#$$@rrr",
"rr#+&;-$%50&X=34:#&161364*@rrrrr",
"rrrro++<1300:$@@#@522526,Oor32rr",
"rrrr+>>@%706<#oO>>#*4758*X;$;$rr",
"rrr;464&O&:&@o;454%O>qq==:8- rrr",
"rO$7q<30>+oro$7q130:+*-*7033;O+r",
"r+,5324582OrO,5324601.X103<872$r",
"r@23173<47&r@24173,47#*813533q;o",
"rr#>782>54*rr#>702>54%#<454,<71@",
"rr@+:5041%+rr@+:5841&@r+>88334&r",
"rrr#+&:-#@rrrr#+&:-#@rr@@=24>%@r",
"rrrrrr+rrrrrrrrrr+rrrrrrr+#$@rrr"
};
