/* XPM */
static char *result[] = {
/* columns rows colors chars-per-pixel */
"32 32 35 1 ",
"  c red",
". c #FF0D00",
"X c #FF1300",
"o c #FF1B00",
"O c #FF2400",
"+ c #FF2C00",
"@ c #FF3300",
"# c #FF3B00",
"$ c #FE4300",
"% c #FE4B00",
"& c #FE5400",
"* c #FD5C00",
"= c #FD6400",
"- c #FD6C00",
"; c #FD7300",
": c #FC7B00",
"> c #FB8400",
", c #FC8B00",
"< c #FB9300",
"1 c #FB9C00",
"2 c #FBA400",
"3 c #FAAB00",
"4 c #F7B100",
"5 c #FAB500",
"6 c #FABB00",
"7 c #F7C100",
"8 c #FAC400",
"9 c #FACC00",
"0 c #F6D100",
"q c #FAD400",
"w c #FADB00",
"e c #FAE100",
"r c #FAEE00",
"t c #F9F500",
"y c None",
/* pixels */
"y=yy@@yyyyyyyyyyyy&yyyyyyyyyyyyy",
"yyyO&yyyyyyyyyyyyy$yyyyyyyyyyyyy",
"yyy@%yyyyy&yyyyyyyyyyyyyyyyyyyyy",
"yyyy@#yyyyyyyyyyyyyyyyyy*yyyyyyy",
"yyyy;,O%yyyyyyyy#y@yyyy$@y&yyyyy",
"y=@@2:X#yyyyyyy@%y%%yyy+oy32yyyy",
"yy+@>&;@@y#yyy$>%yy>@yy@;$;$yyyy",
"y@=,O;r;Oy>#yy$:%+&&y@*>0= yyyyy",
"+=66<,99>&,#y#y#***+y;qq24:+Oyyy",
"+:6<03<17:#yy$$&2,$*&:9<1q9<%yyy",
"+-05>8:,w;#%#&$6t; &=$<133,7:oyy",
"y@:9229q3$*>$:-7e,;@%=$36$>q<@yy",
"y@@:7q91+%r3*$,<32*;,@$6-O12*yyy",
"yy@+&;*#&<681@#=*&o2:.#=Oo#2;yyy",
"yyy@@+O&q624&y%&#O@>&;@o$:+%yyyy",
"yy#*%@&%;6>$@yy@+=,O;t-o=6%Xyyyy",
"yy$<#+**@$@yyy+O=65<<99>&:<>O+yy",
"yy$**#*$yyyyyy@O>6<02126=<e72$Oy",
"y@y+<,=&#yyy%&%$=95>5339>:36q;Oy",
"@$$,w<*;=@yo$$@&+:9229q2-%@291%y",
"$:&6w>%><%@O<5%O$@;6w91#=6$&3*#y",
"$;,6w<X:6&+$1>&>=@@*-=$O&83@%@yy",
"yO&5q&X@,3yy%o*5+X,<OO*=+#&@yyyy",
"yy@&-X=*@*yy@o-;=*@*#yy*=$=#yyyy",
"yyyo#-33OXyy$,*+q5+O$$#:5;*=#yyy",
"yyy+2w532%O#172>3q5=%#;r6*2<$#yy",
"yyO=98<3q6*@3237<261=-,w1:w5>%yy",
"yy@35<65382@19336y93#&398<29>#yy",
"yy@-3482>38$$396798:@+&1972:+yyy",
"yyy+%4q626>$O%29q6:@yy@#=:*@yyyy",
"yyyy+$>52=@yy@#=;&+yyyyyy+yyyyyy",
"yyyyy@@$#+yyyyyy+yyyyyyyyyyyyyyy"
};
