/* XPM */
static char *result[] = {
/* columns rows colors chars-per-pixel */
"32 32 32 1 ",
"  c red",
". c #FF0C00",
"X c #FF1500",
"o c #FF1C00",
"O c #FF2400",
"+ c #FF2C00",
"@ c #FF3400",
"# c #FF3B00",
"$ c #FF4300",
"% c #FE4C00",
"& c #FE5400",
"* c #FD5B00",
"= c #FD6300",
"- c #FD6B00",
"; c #FC7300",
": c #FC7C00",
"> c #FC8400",
", c #FC8B00",
"< c #FB9300",
"1 c #FB9C00",
"2 c #FBA300",
"3 c #FAAB00",
"4 c #FAB200",
"5 c #F7BF00",
"6 c #FABC00",
"7 c #FAC400",
"8 c #FACC00",
"9 c #FAD300",
"0 c #FADA00",
"q c #FAE300",
"w c #F9ED00",
"e c None",
/* pixels */
"eeeeeeeeeeeee&eeeeeeeeeeeeeeeeee",
"eeeeee+eeeeee#eeeeeeeeee+eeeeeee",
"eeeee$&eeeeeeeeeeeee:eO&eeeeeeee",
"eeee+$%eeeeeeee*eeeeee@%eeeeeeee",
"eeeee@@eeee#e@$@eeeeeee@#eeeeeee",
"ee$ee#<%#%@$e%$oe42eeee;>O%%eeee",
"ee=%+=4@+$>%ee-#%;ee=@@3:X@eeeee",
"eee#X-;*&@>%+$%7- eee++-&>$@eeee",
"ee#$,*+0:#+;=&%,8;OO@-,X,7$#eeee",
"ee#172>-*-&42&&$<03@&664:X:,+eee",
"ee#3173o%#6w>=6*+3q=$><<$@;0,#ee",
"ee#2933&;-66=393&%91o<<.>,#<>#ee",
"ee@*>21:$:83>166$,6%o:<O=>@O%eee",
"eee@O>>&&+;703<$%<#=;@&=#&<==$ee",
"eee#@$&#$#+&:-%@%$O;:+@$*67==>$e",
"ee@-;Oe<$eeeOO$eee$#&&**;w3=03*$",
"ee#-;+$*eeeeee@#e#$$>1&;293,671$",
"eeee&-$=#e#eee;>+&$-w8$o,79323&@",
"e#$$>4;*=#e=@@3>o-;,03>=X*34,%@e",
"#&$-w6*12%ee+@,%@+&38713:$@#+eee",
"#=;,01:q,=&$*<@O&=O%1873<#e$eeee",
"e#*387<36-&>54#:*41@@=:*@Oe32eee",
"ee+%1872;OX:7,*,&@*%eeO.@-$;$eee",
"eee@#**&#-#@3:;@-*&&eee*>8- eeee",
"eeeeO&;:<94%@&=&42***X=9833;++ee",
"eeeO%7863776@%#6w:=4-@193<882$ee",
"eeeo=7146<16&;-47;20,%:336330;oe",
"eeee@*385<17=@>861<74#=664,<71@e",
"eeeee+%2873:#+@:7941&+@:88333&ee",
"eeeeee@#=:&@ee#+%:-#@e@@=24,%+ee",
"eeeeeeeee+eeeeeee+eeeeee@#$@eeee",
"eeeeeeeeeeeeeeeeeeeeeeeeeeeeeeee"
};
