/* XPM */
static char *result[] = {
/* columns rows colors chars-per-pixel */
"32 32 31 1 ",
"  c #FF1600",
". c #FF1D00",
"X c #FF2400",
"o c #FF2C00",
"O c #FF3400",
"+ c #FF3C00",
"@ c #FE4300",
"# c #FE4C00",
"$ c #FE5400",
"% c #FD5B00",
"& c #FD6400",
"* c #FD6C00",
"= c #FC7400",
"- c #FC7B00",
"; c #FB8400",
": c #FB8C00",
"> c #FC9400",
", c #FB9C00",
"< c #FBA300",
"1 c #FAAB00",
"2 c #FAB400",
"3 c #FABB00",
"4 c #FAC400",
"5 c #FACC00",
"6 c #F6D700",
"7 c #FAD300",
"8 c #FADB00",
"9 c #FAE300",
"0 c #F9EB00",
"q c #F9F200",
"w c None",
/* pixels */
"wwwwwwwwwwwwwwwwww#wwwwwwwwwwwww",
"wwwww-wwwwwwwwwwwwwwwwwww>+wwwww",
"wwwww@wwwwwwwwwwwwwwwwwww$owwwww",
"wwwwOXw=>wwwwwww+w+wwwwwOo.w>www",
"wwwwoOww>wow+OwO@w@+wwwwX@Xw2www",
"wwwX$1#.wo+ww$O%#ww$++wwo;;oXwww",
"ww+<34>O =-Xw,#:+Ow$$ww=232%.www",
"w.;93>5<@&*o@%+%%O$@Oo+48,17;+ow",
"X$221<7>:&@=@OOo,;&#OX>31<337<Xw",
".*4,14,$&&-2#@+>8>@;*O,1,41:24#w",
"wO$157%+O&q4@*$39-:9*#o;45<;33%w",
"wwo#,8;$=:7>@*;41*<41&XX=372,#ow",
"wwwO+**+$15>;o$232<2-+3&X#-*+Oww",
"wwwwwowwo$,78-X@:2>#O=53<$wwwwww",
"wwwwwwwwwOO&-%+OO#$%>4<,5-wwwwww",
"wwwwOwwO+O*$ Owww@<92342<+wwwwww",
"www#%ww;+O2*o+wwwO#>5575%Xwwwwww",
"wwO-=.w;@#+&4+Xww+OX-2<# o%;wwww",
"www$&@++=4#;9<%OO@w@@++ #ow<wwww",
"wO+w&>&%@;6,141@;#ww;.wO--@owwww",
"w@+$35&&-O<4<1<&=#o$#w-3&>+Xwwww",
"O*%=02&9,O#445-$X=&$+#5&o,$+#oww",
"w%-14;>4,=$38,@O#2<%%*#+#44#$+ww",
"wwO;431<3@$3,O#@30-&3*O<$&>&:%ww",
"wwo.%<1-O@@+O@;*27-<5-$&&X+$<%ww",
"wX$-$++$=5% ww@-471>2&+.>:%#++ww",
"wX&62<<,27;wwwOO-372$O+>8>@;&oww",
"wwO$175>,4;+www+o$-&O=$38*>9-#ww",
"wwwo#<541-Owwwwwwwoo@=;35>,44%#w",
"wwwwO+&-%owwwwwwwwwwwX%274,2;+ww",
"wwwwwwwowwwwwwwwwwwwwwo@;2<&Owww",
"wwwwwwwwwwwwwwwwwwwwwwwOO@+Owwww"
};
