/* XPM */
static char *result[] = {
/* columns rows colors chars-per-pixel */
"32 32 31 1 ",
"  c red",
". c #FF1300",
"X c #FF1D00",
"o c #FF2400",
"O c #FF2D00",
"+ c #FF3400",
"@ c #FF3C00",
"# c #FF4300",
"$ c #FE4B00",
"% c #FE5400",
"& c #FD5C00",
"* c #FD6300",
"= c #FD6C00",
"- c #FC7400",
"; c #FC7B00",
": c #FC8500",
"> c #FC8B00",
", c #FC9400",
"< c #FB9C00",
"1 c #FBA300",
"2 c #FAAB00",
"3 c #FAB300",
"4 c #FABB00",
"5 c #FAC400",
"6 c #FACC00",
"7 c #FAD200",
"8 c #FADA00",
"9 c #FAE200",
"0 c #F9EC00",
"q c #F9F200",
"w c None",
/* pixels */
"wwwwwwwww%wwwwwwwwwwwwwwwwwwwwww",
"wwwwwwwwwwwwwwwwwwwwwwwwww@wwwww",
"wwwwwwwwwwwwww&wwwwwwwww;wwwwwww",
"wwwww&+wwwwww#Owwwwwwwww$wwwwwww",
"wwww#+O%#+wwwOXw31wwwww+@w@+wwww",
"wwwwo$$:w;#ww@-#-#wwwww+@w$$wwww",
"wwwoo;=@=>+w&:6= wwwww@:%@%=+www",
"ww@%*-=@+$o=7;,3-oOww$%,*+$$wwww",
"ww;>:=$,*&@:8<>661#O+=1+=*%@Owww",
"O#;#@&46**:@;76128-.+%;%21%&&Oww",
"X:-$&-02*9<#@&2<>6<++%+4q>&5;+ww",
"w&=*-17,>51;$o$232%O#:=56*,;>&$w",
"w+#$O>56214&+*#-<$O@@#>5%O,@$%ww",
"ww@+++=13>#oO&&@@ww+Oo@$#%21$Oww",
"www%w+o@#+#*@%#wwww#:*+#:@%=*www",
"wwwww#%w+@+,>*$@ww@<52;=#%O%#www",
"wwww+#%+##,8,#:=Ow#223*=+,>&$@ww",
"wwwww++#;%48-,8=$w#17%+#,8<#:=Ow",
"ww#ww+>%*>46,<32=O+&<#-$49;>9;$w",
"ww*$O=1+X&375<4:#>wo%&=:61=155*#",
"www@O;&+%o#:3<%.w2ww@#o&34313:+w",
"ww@+@@$&$@O++#&*@Owwwww+#;31=+ww",
"ww+-=$2,#3;X*254&XwwwwwwO$@+Owww",
"w#O->+$@=6%O58<27:#Oww+%>5*.wwww",
"ww#$%=#%&:o>4213471oww*7623;oOww",
"w@##;3-&*#@<3<52>35$X+<72>551#ww",
"@%@=q4&<<#+@:561>43&.=6<24228-Xw",
"+=->8<;9,*%+O;473<$Ow$,344>,5<+w",
"w@&175,14-#w+O%-=@+ww+O;66222%ww",
"wwO%<651:+wwwwwOwwwwww++*13>$Oww",
"www+@*;&+wwwwwwwwwwwwwww+@#+wwww",
"wwwww+++wwwwwwwwwwwwwwwwwwwwwwww"
};
