/* XPM */
static char *result[] = {
/* columns rows colors chars-per-pixel */
"32 32 34 1 ",
"  c #FF0200",
". c #FF0800",
"X c #FF1400",
"o c #FF1C00",
"O c #FF2400",
"+ c #FF2C00",
"@ c #FF3400",
"# c #FF3B00",
"$ c #FE4400",
"% c #FE4B00",
"& c #FE5400",
"* c #FD5B00",
"= c #FD6400",
"- c #FD6B00",
"; c #FC7300",
": c #FD7B00",
"> c #FC8300",
", c #FB8B00",
"< c #FC9300",
"1 c #FB9B00",
"2 c #FAA400",
"3 c #FAAB00",
"4 c #F7B100",
"5 c #FAB300",
"6 c #FBBB00",
"7 c #F7C100",
"8 c #FAC400",
"9 c #FACC00",
"0 c #FAD300",
"q c #FADB00",
"w c #FAE700",
"e c #F6EA00",
"r c #F9EC00",
"t c None",
/* pixels */
"ttttttttttttttttttt&tttttttttttt",
"ttttt@#ttttttttttttttttttt<#tttt",
"tttt+%*ttttt;@tttttttttttt*+tttt",
"tttt@#+ttttt#ttt#t#&t@#ttt+ot<tt",
"ttttt@=tt%t+Oot<+tt@@%*tto#Ot5tt",
"tt*t@&,#@ttX=*#&*tt>$@@tt+,,+Ott",
"ttt%O>,+%+$-35+--Ot,#t=+-565*Ott",
"ttt+%%%6:o2q7,;&&$#%+&%#7q130>#+",
"tt#><$%<#&983=::&,==$$O,6326602O",
"tt%,O,1X@3521@#=69==>@+25162,58%",
"tt#$#:e<O=39*%&;r5=q3*#+>951,65*",
"tt+>>X>,*@$82*;29:,66<&#O;6041%@",
"tt$&:#+@,2O$2-O,76323#>6&%*:-#@t",
"t@#+*<==&*@+#$@@=35>$#,w1=&otttt",
"t$#&88==:#ttt##@t##+%361@&$ttttt",
"@-*:w3-q3*%ttt#@ttt@%:2@@&#ttttt",
"t&:2q,>671%$tt@<&#%ttt###+tt$ttt",
"t@@>98225&#=%+=5++tttttt@<&@%ttt",
"tt@#=26:#Ott@o=;=*Ott*%+=5@Otttt",
"ttt@+@+-&@tt$,*+05O>tt#o;;==@ttt",
"tttt@-O$1>O#172>395<%+%<& 23o#tt",
"tt@*>9- ->o#5157<35:O@:<&@>r,@tt",
"tt*0933;+$-#10336t<Xo@6&;,@1>%$t",
"+@103<991+,-#39689*o-$-:::@O$=tt",
"o-913733q*:5X$209==:8;.:;$<==$#t",
"t%<55<,<8>-8>@@-**805>##=69==>#t",
"t@+>96353#t9w;too<034-&&;w2=q3*$",
"tt@@=25>+&9q3&to-9138>&;203,681$",
"tttt@##$=q01%@tt%<4653*o,80325&@",
"tttttt@#-:=#@ttt@+>9953*O=25>%+t",
"ttttttttt+ttttttt@@=23,*@+#$@ttt",
"ttttttttttttttttttt+#$@ttttttttt"
};
