/* XPM */
static char *result[] = {
/* columns rows colors chars-per-pixel */
"32 32 33 1 ",
"  c red",
". c #FF0E00",
"X c #FF1300",
"o c #FF1C00",
"O c #FF2300",
"+ c #FF2C00",
"@ c #FF3300",
"# c #FF3C00",
"$ c #FE4300",
"% c #FE4B00",
"& c #FE5300",
"* c #FD5B00",
"= c #FD6300",
"- c #FD6B00",
"; c #FC7300",
": c #FC7C00",
"> c #FB8400",
", c #FB8B00",
"< c #FB9300",
"1 c #FB9B00",
"2 c #FBA300",
"3 c #FAAB00",
"4 c #FAB300",
"5 c #FABC00",
"6 c #FAC400",
"7 c #FACC00",
"8 c #FAD300",
"9 c #FADA00",
"0 c #FAE400",
"q c #F9EC00",
"w c #F5F200",
"e c #F9FD00",
"r c None",
/* pixels */
"rrrrrrrrrrrrrrrrrrrrrrrrrrrrrrrr",
"rrrrrrrr;@rrrrrrrrrrrrrrrrrrrrrr",
"rrrrrrrr#rr$rrrrrr;rr#@rrrrrrrrr",
"rrrr%;r+Oor6rr<$rrrrO*rrrrrrrrrr",
"rrrr%r@O-&r-rr&+rrrr#@rrr@&%@rrr",
"rrr@$r%#<4o.rr+or,rrr&*r@#rr&#rr",
"rr$,$+4==62$OO$Or5%r+,,o;;Or2$rr",
"rr$:$+&&,495;o>,Orr@#3=O--+$&rrr",
"r$r+;*&$<7264#45*oO&*$$,%%-$*#rr",
"r$$%42*&%;<46=:48<#$1-$=%:4;*-#r",
"#&$5q:=5=@<7;#1592$X@=&@-q6*11$#",
"$>-56;36,**;@:75:O#==+=;,9>:94,$",
"r$:74<<54%+O=882+:%*8;O*37,,27,#",
"r++;594<#%3#@:55=,&O*%#@$<972;@r",
"r@%#%**$#*-#@@%*&+;=%@*$##*=&+@r",
"O&44,*-38%O%##r@@%42&@>-45&%13&%",
"o=6257328,@+%&#&$6q:;<@:794175%r",
"r@*376,16>@@1-o:-47:20=O;5841%@r",
"rr+%2763:+@#>=-#:683,63@+$;;#@rr",
"rrr@#->&O$#=+-e*o:574<$=>#$Orrrr",
"rrrrrOOr&$+>:O27*O%:=@@&&>%O%rrr",
"rrrr@+Xr3##;w>@5<+oX*,4,-&X+=2rr",
"rrrrX=&r&::#<>&8=X;+%2332X*==*rr",
"rrr%-33@o&:#O#:,-:7- ;0,*;32+orr",
"rr+1945>+O*<==#=7734-@:&,9432$Or",
"rO=772,$@*66==:@35,78> &77<395;+",
"r@3418*%*:q3=93%%45351O24154264@",
"r@-347>$;282,55<$35,<7=*2461>47*",
"rr+%489=O>68324$*88334&o%49515>#",
"rrr+$>51@+-24,%+#=14,%@r+%>42-@r",
"rrrr@@#$$#@##@rrr+#$@rrrr@@$#+rr",
"rrrrrrrrrrrrrrrrrrrrrrrrrrrrrrrr"
};
