/* XPM */
static char *result[] = {
/* columns rows colors chars-per-pixel */
"32 32 34 1 ",
"  c red",
". c #FF0900",
"X c #FF1400",
"o c #FF1C00",
"O c #FF2300",
"+ c #FF2C00",
"@ c #FF3400",
"# c #FF3C00",
"$ c #FE4300",
"% c #FE4B00",
"& c #FE5400",
"* c #FD5B00",
"= c #FD6300",
"- c #FD6B00",
"; c #FC7300",
": c #FC7C00",
"> c #FC8300",
", c #FB8C00",
"< c #FA9300",
"1 c #FA9B00",
"2 c #FBA300",
"3 c #FAAC00",
"4 c #FAB300",
"5 c #FABB00",
"6 c #F7C400",
"7 c #FBC400",
"8 c #F7C800",
"9 c #FACB00",
"0 c #F6D600",
"q c #FAD400",
"w c #FADA00",
"e c #FAE500",
"r c #F9ED00",
"t c None",
/* pixels */
"ttttttttttttttttttt-tt#@tttttttt",
"ttttt;tt#@tttttttttttO*ttttttttt",
"tttttttO*tttttttttttt#@ttttttttt",
"tttttt@##ttttttttttttt&=t%tt&ttt",
"ttttt#tt#%t$tttttt%*t+,,o$tttttt",
"tttt@##$*$@$tt-ttttt+#3*@#tttttt",
"ttt@;;O&1###t$+tttt+@&#=9%@#tttt",
"tttt--@$#-9$O+Ot42t$14%23+###ttt",
"ttttt&-$%=w2#O;#;t+:510>##>>;$tt",
"tt#$#>4;=&*>::w- t+:920-=;$:>#tt",
"t#&#-r7*12#&89>2:OO%4w1>;;@@&ttt",
"t@-;,w>:e<*%74=792$o%5:::$<==$tt",
"tt+&39>,35-*13w33w-O@%$#=57==>$t",
"tt$@$1w82:O:,1><181@#O-&;r3=w3*$",
"to,4@@&=%@@@%4@-63&+*t&:2q2<481$",
"O&5541-*1*O@#=*#;&+#@tt@>7q324&@",
"O=725833w,#>$O--ottt&*t@@=14>%+t",
"t@&377,17:$:%+%$ttt+,,O#tt$$@ttt",
"tt+%2983:+t@;=*$tt+#3*+#tt,ttttt",
"ttt@#=:*+#t&41*=&#%%#=7#X:=ttttt",
"tttttOOt@*$5r>=5;#14%,e2*$+ttttt",
"tttt++Ot*:-55-37;&=38<3w,Oot32tt",
"ttttX=*t*#>93:152+*w65,1*o;$;$tt",
"ttt$-33OX+#;5w3<%##;19q=-:9- ttt",
"tt+2w531%o@#%=*@*81o;w-=7934;O+t",
"tO*88,3w5-X-1$=355w*=: 1w3,992$t",
"t@35154285+#2897,,91#X=913533w;o",
"t@-3471>39=O+>99333&tt%<355><91@",
"ttO%4w515>#t@@=24>%+tt@+>99333&t",
"ttt@$,42-@tttt@#$@ttttt@@=24>%@t",
"tttt@@##@tttttttttttttttt+#$@ttt",
"tttttttttttttttttttttttttttttttt"
};
