/* XPM */
static char *result[] = {
/* columns rows colors chars-per-pixel */
"32 32 35 1 ",
"  c #FF0700",
". c #FF1500",
"X c #FF1C00",
"o c #FF2300",
"O c #FF2C00",
"+ c #F63000",
"@ c #FF3400",
"# c #FF3B00",
"$ c #FE4300",
"% c #FE4C00",
"& c #FD5300",
"* c #FD5B00",
"= c #FD6300",
"- c #FD6B00",
"; c #FC7300",
": c #FC7B00",
"> c #FB8400",
", c #FB8C00",
"< c #FA9200",
"1 c #FB9C00",
"2 c #FAA400",
"3 c #FAAB00",
"4 c #FAB300",
"5 c #F7B800",
"6 c #FABC00",
"7 c #FAC300",
"8 c #F6C800",
"9 c #FACC00",
"0 c #F7D000",
"q c #FAD200",
"w c #FADA00",
"e c #FAE200",
"r c #FAEE00",
"t c #F9F100",
"y c None",
/* pixels */
"yyyyyyyy@yyyyyyyyyyyyyyyyyyyyyyy",
"yyyyyyy$&yyyyyyyyyyyyyyyyyyyyyyy",
"yyyyyyO$%yyyyyyyyyyyyyy*yyyyyyyy",
"yyyyyyy#@yyyyyyyyyyyyy$Oyyyyyyyy",
"yyyy$yy@<%#%yyyyyyyyyyOoy13yyyyy",
"yyyy=%O-4@oyy,:yyyyyyX@;@;-yyyyy",
"yyyyy@.--=*oyy$yyyyy@*>8=##yyyyy",
"yyyy@$,*Oq6#O@oy:>yy*q941@Xy;,yy",
"yyyy#173,467*X#yy>yO1q34>X#.:<yy",
"yyyy$32,3<2,=#3%XyX-q141%#3%.yyy",
"yyyy#296-=y=,67<@Xy%<62&,67<@.yy",
"yyyy@&66O$o;e6<94&@O@-O;e6<84*@y",
"yyyyy@*$X.$643267q*X$.$643367q*X",
"yyyyyyo =%*7137<2q,o*@=7146<19,O",
"yyyyyy$-33O%3q7<:1<#Oy@&397,17>+",
"yyyyyO2w44>.$17q>&#y&=yO%1973:@y",
"yyyyX=87<4w<O$;;*#@O,<o#@%-;*Oyy",
"yyyyO36<66291=*Xyy@#3*O#&,#yyyyy",
"yyyyO-366>>37:@yyO%&#=7##=yyyyyy",
"yyyy@o$4q426>@@yy*&3%,e2%XXy<yyy",
"yyyyy#O%>42-o-;y,2@<9<79O@oy4yyy",
"yyyyy;,X@$#Oo;,O#@:758>-@>,Ooyyy",
"yy=@@2:.#yy@<;%-$&=74w*&464=Xyyy",
"yyyo@>&;@OO#:-;4;*%=9&@6w12q,#Oy",
"yy@=,o;t;oO*O=t6*11#$X,63246q2oy",
"y@=66,<8q=.-;,q1:e2;@O23173<47&y",
"yO:6<82133*O*394<27:#y#>792>64&y",
"yO=9726y6w:oO%2973:@yy@O:6q41&Oy",
"yy#:9748q3&y#@#=:*Oyyyy#O&:-#@yy",
"yy@O:6q91%OyyyyOOyyyyyyyyyOyyyyy",
"yyy#O%;-#@yyyyyyyyyyyyyyyyyyyyyy",
"yyyyy@@@yyyyyyyyyyyyyyyyyyyyyyyy"
};
