/* XPM */
static char *result[] = {
/* columns rows colors chars-per-pixel */
"32 32 33 1 ",
"  c #FF0300",
". c #FF0D00",
"X c #FF1400",
"o c #FF1B00",
"O c #FF2400",
"+ c #FF2B00",
"@ c #FF3300",
"# c #FF3C00",
"$ c #FE4400",
"% c #FE4B00",
"& c #FE5300",
"* c #FD5A00",
"= c #FD6300",
"- c #FD6C00",
"; c #FC7400",
": c #FC7B00",
"> c #FB8400",
", c #FB8B00",
"< c #FB9400",
"1 c #FA9B00",
"2 c #FBA300",
"3 c #FAAC00",
"4 c #F7B100",
"5 c #FAB400",
"6 c #FBBC00",
"7 c #F7C100",
"8 c #FAC400",
"9 c #FACC00",
"0 c #FAD200",
"q c #FADB00",
"w c #FAE100",
"e c #F9E900",
"r c None",
/* pixels */
"rrrrrrrrrrrrrrrrrr3rrrrrrrrrrrrr",
"rrrrrrrrrrrrrrrrrr:@rrrrrrrrrrrr",
"rrrrrrrrr@#rrrrrrr#rr&rrrr*rrrrr",
"rrrrr*rr+$*rrrrrr+OXr8rrr$@r&rrr",
"rrrr$@rr%@@rrrrrrX=&r-rrr+Or32rr",
"rrrr+or4:r=rr%rr$-33O.rro@-$;$rr",
"rrrr@;@*$$3$@rr+2q531&++&>9= rrr",
"rr@*,9- X,1+@#O=98<3q5@&q934;O+r",
"rr*q933;O$%2;XO36<655=O103,992$O",
"+@103,992+@qq:@=2582<+*913933q;O",
"o-913633q;+,2q,o%4q64>$,45>>181%",
"r%<465,<9:#,O,9#X$>51:+X>95233&#",
"r@+>9035>O$9:#>rr#+$#+=;o*34>%+r",
"rr@@=14:@:&3e=o%3rrr@X->=%O$@rrr",
"rrrr+$%@#,%@&%@r&Orr#,*+05@Orrrr",
"rrrrrr1$r+-*&%rr+Or,162>306=rrrr",
"rrrrrr;$r%51&=*o$#r<3148<253@rrr",
"rrrrrr@&$8e:-6-@>=X+29346r04$rrr",
"rrrrr+@>-60:291&;4*X#403805;#rrr",
"rrrrr@%&:803,64%=9q>+#25<::+rrrr",
"rrrr+$1@O;6041$#<=6q1o@>=+#rrrrr",
"rrr@@%5:#O%;;#O%6##69&r+Oor<rrrr",
"rr+#,%:9-->oO@*&08@;8*ro#Or4rrrr",
"rr#*<&+%%86@r%>#-2=-=+r+,,O+rrrr",
"rr%%+;*&#,q=rr%&+#$$rr;564*orrrr",
"rr$@%52&*&*%@r@1>=%#o#8q13q>$+rr",
"r#&$6e:=6=O@$#,q1$>=O<6325602+rr",
"r$>-60:2q2=@:&6q-<w;%,5183,58%rr",
"rr$>893,66%@;,69<188*O>892>65&rr",
"rr@@:6051&@rO*40815>#@+:6051%@rr",
"rrr#+&;-#@rrr+%>52-@rr#+&;-#@rrr",
"rrrrrr+rrrrrrr@@##+rrrrrr+rrrrrr"
};
