/* XPM */
static char *floor_21690046443[] = {
/* columns rows colors chars-per-pixel */
"32 32 25 1 ",
"  c #656C17",
". c #686F16",
"X c #72751B",
"o c #787B21",
"O c #605C48",
"+ c #64604B",
"@ c #6C6852",
"# c #7C7B6E",
"$ c #807F72",
"% c #7F8124",
"& c #7F8226",
"* c #818074",
"= c #848279",
"- c #878679",
"; c #86847B",
": c #87857C",
"> c #87867D",
", c #88867D",
"< c #89877F",
"1 c #8D8B82",
"2 c #8D8B83",
"3 c #8E8C83",
"4 c #8E8C84",
"5 c #8E8D84",
"6 c #939189",
/* pixels */
"XXXXXXXXXXXXXXXXXXXXoXXXXXXXXXXX",
"XX$$$$$$$$$$$$XXXX############XX",
"X,$$$$$$$$$$$$,XX$############$X",
"X,$$$$$$$$$$$$,XX>############$X",
"X,$$$$$$$$$$$$,XX;############;X",
"X++>$$$$$$$$$$,Xo$############;X",
"XX>$$$$$$$$$$$,XX$$###########;X",
"XX>$$$$$$$$$$$,XX$$###########*X",
"X>$$$$$$$$$$$$,Xo$############;X",
"X>$$$$$$$$$$$$,XX#############;X",
"X;$$$$$$$$$$$$,XX$############$X",
"X>$$$$$$$$$$*#1XX;############=X",
"X,$$$$$$$$**$X&XX=#oo#########=X",
"X;$$$$$*$$****&&X;oo##########1X",
"XO552555555555.oo+oo21$1=11114XX",
"XX++O+O+OOO+O+.ooX  +++OOOOOOOXX",
"XXXXXXXXXXXXXXX. XXXXXXXXXXXXXXX",
"XX$$$$$$$$$$$$XXXX#;----------XX",
"X$$$$$$$$$$$$$-XX44<----------2X",
"X,$$$$$$$$$$$$-XX4;;---------,3X",
"X,$$$$$$$$$$$$,XX4,,;---------2X",
"X,$$$$$$$$$$$$-XX4==----------3X",
"X,$$$$$$$$$$$=-XX4;1----------3X",
"X,$$$$$$$$$$$$-XX4<$----------3X",
"X,$$$$$$$$$$$$,XX3------------4X",
"X,$$$$$$$$$$$$=XX6------------4X",
"X,$$$$$$$$$$$$=XX3------------2X",
"X,$$$$$$$$$$$$1XX3------------5X",
"X>$$$$$$$$$$#*,XX6----o-------3X",
"X4$$$$$$**$***,XX3---%%-------3X",
"XO5555445535<5+XX+66o&.6666666@X",
"XX++O+OO++O+++XXXXO@oX@@@@@@@@XX"
};
