/* XPM */
static char *_7d77c6054514994c5295afaddd5640aKsEUNuXJ4MFMldtk[] = {
/* columns rows colors chars-per-pixel */
"33 33 6 1 ",
"  c None",
". c black",
"X c #410209",
"o c #970C22",
"O c #BC142E",
"+ c white",
/* pixels */
"                                 ",
"                                 ",
"                                 ",
"           XXXXXXX               ",
"          XoOOOOOOX              ",
"         XoOOOXXXXOX             ",
"        XoOOOX....XOX            ",
"        XoOOX......XOX           ",
"       XooOOX......XOX           ",
"       XoooOX.+...+XOX           ",
"       XoXoOX.+...+XOX           ",
"       XoXoOX......XoX           ",
"        XXooOX.....XoX           ",
"          XoooX...XoX            ",
"           XXooXXXoX             ",
"          XoooOOOOOoX            ",
"         XoOOOOOOOOOoX           ",
"         XoOOOOOOOOOoX           ",
"         XOOOOOOOOOOOX           ",
"        XoOOOOOOOOOOOX           ",
"        XoOOOOOOoOOOOoX          ",
"        XoOOOOOOoOOOOoX          ",
"        XoOOOOOoXoOOooX          ",
"       XoooOoOooXooOooX          ",
"       XooooOooX.XooooX          ",
"       XoXooooX..XooXoX          ",
"        XXoXooX...XooX           ",
"         XX XXX  .XXX            ",
"            ..    .              ",
"             .    .              ",
"             .    .              ",
"                                 ",
"                                 "
};
