/* XPM */
static char *TX_Props1690047914[] = {
/* columns rows colors chars-per-pixel */
"32 32 62 1 ",
"  c None",
". c #430000",
"X c #4B1500",
"o c #4A1B00",
"O c #4E2304",
"+ c #4E260B",
"@ c #512603",
"# c #552E07",
"$ c #502608",
"% c #532C0C",
"& c #4F2913",
"* c #4E2C1A",
"= c #522C14",
"- c #522F1A",
"; c #563214",
": c #54311B",
"> c #59351D",
", c #5A381B",
"< c #543320",
"1 c #5B3A23",
"2 c #563C2E",
"3 c #5C3F2A",
"4 c #583E30",
"5 c #5E412C",
"6 c #574133",
"7 c #594435",
"8 c #574739",
"9 c #5A4639",
"0 c #5B4A3D",
"q c #5D4D41",
"w c #5F564D",
"e c #614E41",
"r c #625344",
"t c #665847",
"y c #62564D",
"u c #63594E",
"i c #685B4B",
"p c #645B53",
"a c #6A5E54",
"s c #676057",
"d c #6B6256",
"f c #676058",
"g c #6C635A",
"h c #70665A",
"j c #72695E",
"k c #726D64",
"l c #787265",
"z c #77716A",
"x c #7B756C",
"c c #7D796D",
"v c #7F7C70",
"b c #817E74",
"n c #838276",
"m c #878479",
"M c #8A877D",
"N c #8B887E",
"B c #8E8B81",
"V c #918E84",
"C c #928F88",
"Z c #94928A",
"A c #99968F",
"S c #9C9993",
/* pixels */
"                                ",
"                                ",
"        >11135311111111         ",
"       =xbbbZNNNMBVxksd+        ",
"       ;lbzbVNNNNmBxgad+        ",
"       ;zzblZNNVBBBxpsd+        ",
"       ;lblbZNNNBNVxjdd+        ",
"       ;zlbbSZZZZZAxjgd&        ",
"       >jxlANVBNNNNZggp%        ",
"       >jbZNNVNVVVNNAju=        ",
"       >hVVVVNBBVVNVVVg=        ",
"       @VNVVVVVVVVVVVVZO        ",
"       .VBBBBBBBNBMMMBBO        ",
"       Xkyypywypiiyywwk+        ",
"       XzypppppppppypwkO        ",
"        X@--$<----=-:OX&        ",
"          4q-77777279O          ",
"          ya<yeeeq4qdo          ",
"        aeyap444220yd=7         ",
"       ,Nb4yqeeqqqqq2rt&        ",
"       ,Nbi;e999888*ytt&        ",
"       ;Nbd=kgggaya4iii+        ",
"       #Nbh=haahaag4ahM=        ",
"       #Nmx=jagaapa2dnV=        ",
"       @CmMae999000wlnC-        ",
"       @VNmmxxxccxxnnnB:        ",
"       XCZZZZZZZZZZZCCZo        ",
"       Xgpppuuyywwwwwwg+        ",
"       XksgfssaapsspfakO        ",
"       =OOOO$O++OO+OOOO&        ",
"                                ",
"                                "
};
