/* XPM */
static char *ba87d7ef122344e1b11e56a4b8484645fKqyyYlbpeyi1j1i[] = {
/* columns rows colors chars-per-pixel */
"32 33 4 1 ",
"  c #423934",
". c #5A4E44",
"X c #796755",
"o c #A08662",
/* pixels */
"ooo ooooo .Xooo oooooo Xooooo. o",
".XX XoooX .XXXX XXoooX .XooXX. .",
".XX  XXX  .XXXX .XXXXX ..XXX.  .",
".   ....   ...   ......  ..   ..",
" ooo    oo     oo       .  oo.  ",
"oooooo oooX. ooooo oooo .oooooX ",
"XoooXX XXXX. XoooX XX.. .XXooX. ",
"XXXXX. XXXX.  XXX  XX..  .XXX.. ",
"XXXXX.  XX.   ... .... X       .",
".....  .   . X   X     X. XXXX  ",
"       ..... .XXXX. .XXX. .XX.. ",
".....   ...   ....   ...   ..  .",
"     oo     oo    ooo   .oo  .  ",
"ooo ooooo .Xooo oooooo Xooooo. o",
".XX XoooX .XXXX XXoooX .XooXX. .",
".XX  XXX  .XXXX .XXXXX ..XXX.  .",
".... ...   .XX  .XXXXX.       X ",
"    X   X .   .  .....  XXXX .X ",
"X. .XXXX. .....        ..XX. .XX",
".   ....   ...   ......  ..   ..",
" ooo    oo     oo       .  oo.  ",
"oooooo oooX. ooooo oooo .oooooX ",
"XoooXX XXXX. XoooX XX.. .XXooX. ",
"XXXXX. XXXX.  XXX  XX..  .XXX.. ",
"XXXXX.  XX.   ... .... X  ...  .",
".....  .   . X   X     X. XXXX  ",
"       ..... .XXXX. .XXX. XXX.. ",
".....   ...   ....   ...  ...  .",
"     X             XX    X    . ",
"XXXXX. XXXX.  XXX  XX..  .XXX.. ",
".....   ...   ....   ...   ..  .",
"     oo     oo    ooo   .oo  .  ",
"ooo ooooo .Xooo oooooo Xooooo. o"
};
