/* XPM */
static char *_ba8254721c44b21f0845989a6a79a05Gp7jlfkcj7sdjD0t[] = {
/* columns rows colors chars-per-pixel */
"32 32 225 2 ",
"   c None",
".  c black",
"X  c #0D0602",
"o  c #0E0602",
"O  c #0F0602",
"+  c #0E0603",
"@  c #090604",
"#  c #0B0704",
"$  c #0C0704",
"%  c #140A03",
"&  c #120B05",
"*  c #130B05",
"=  c #170D06",
"-  c #180C04",
";  c #180D04",
":  c #180C05",
">  c #190D05",
",  c #1B0E05",
"<  c #180E06",
"1  c #190F07",
"2  c #1A0F07",
"3  c #170F09",
"4  c #1A1007",
"5  c #1B1007",
"6  c #1C1107",
"7  c #1E1008",
"8  c #1E1208",
"9  c #1F1208",
"0  c #1F1308",
"q  c #1F1309",
"w  c #201308",
"e  c #201309",
"r  c #201409",
"t  c #211409",
"y  c #221409",
"u  c #21140A",
"i  c #22150A",
"p  c #23150A",
"a  c #24160A",
"s  c #25160B",
"d  c #25170B",
"f  c #26150D",
"g  c #28180B",
"h  c #2A190B",
"j  c #291910",
"k  c #311F10",
"l  c #372211",
"z  c #372312",
"x  c #342114",
"c  c #342215",
"v  c #352315",
"b  c #392311",
"n  c #382312",
"m  c #392312",
"M  c #392412",
"N  c #392413",
"B  c #392513",
"V  c #3A2412",
"C  c #3A2413",
"Z  c #3A2513",
"A  c #3A2514",
"S  c #3B2514",
"D  c #3B2614",
"F  c #3B2615",
"G  c #3D2614",
"H  c #3C2615",
"J  c #3C2715",
"K  c #3D2715",
"L  c #3E2715",
"P  c #3E2815",
"I  c #3F2816",
"U  c #402916",
"Y  c #452C17",
"T  c #462C17",
"R  c #482E17",
"E  c #412919",
"W  c #452D18",
"Q  c #462D18",
"!  c #472E19",
"~  c #442C1A",
"^  c #452D1A",
"/  c #472E1B",
"(  c #442B1C",
")  c #462E1C",
"_  c #462F1E",
"`  c #472F1F",
"'  c #482E18",
"]  c #482E19",
"[  c #492F19",
"{  c #46301E",
"}  c #4B3019",
"|  c #4B301A",
" . c #4C3019",
".. c #4C3119",
"X. c #4D3119",
"o. c #4C311A",
"O. c #4D321B",
"+. c #4E321B",
"@. c #4F331B",
"#. c #503318",
"$. c #513318",
"%. c #50341B",
"&. c #51341B",
"*. c #52341A",
"=. c #52351B",
"-. c #54361B",
";. c #50341C",
":. c #52351D",
">. c #53361E",
",. c #54361C",
"<. c #54361D",
"1. c #54371D",
"2. c #55371D",
"3. c #56371D",
"4. c #54371F",
"5. c #56381D",
"6. c #55381E",
"7. c #56381E",
"8. c #57391F",
"9. c #593A1F",
"0. c #483020",
"q. c #523821",
"w. c #553A26",
"e. c #573B27",
"r. c #583A20",
"t. c #593A21",
"y. c #593B21",
"u. c #5A3C22",
"i. c #5B3C22",
"p. c #5C3D23",
"a. c #5D3E24",
"s. c #5E3F24",
"d. c #5D4027",
"f. c #5E422A",
"g. c #604126",
"h. c #604127",
"j. c #614227",
"k. c #624329",
"l. c #62442B",
"z. c #63442B",
"x. c #64452B",
"c. c #62452C",
"v. c #64452C",
"b. c #66472C",
"n. c #67472D",
"m. c #66472E",
"M. c #67472E",
"N. c #67482D",
"B. c #68482D",
"V. c #68492E",
"C. c #69492E",
"Z. c #68482F",
"A. c #68492F",
"S. c #69492F",
"D. c #6A4A2F",
"F. c #694930",
"G. c #694A30",
"H. c #6A4B30",
"J. c #6B4B30",
"K. c #6C4C31",
"L. c #6D4D32",
"P. c #6E4E32",
"I. c #6F4E33",
"U. c #6F4F33",
"Y. c #705032",
"T. c #745335",
"R. c #755335",
"E. c #785537",
"W. c #825E3A",
"Q. c #835F3B",
"!. c #8C663F",
"~. c #8D6740",
"^. c #926B42",
"/. c #926B43",
"(. c #936C43",
"). c #966E44",
"_. c #987045",
"`. c #A07749",
"'. c #A17749",
"]. c #A47A4B",
"[. c #A57A4B",
"{. c #A67B4B",
"}. c #AA7E4E",
"|. c #B28551",
" X c #B48752",
".X c #B58752",
"XX c #B58753",
"oX c #B68853",
"OX c #B78853",
"+X c #B88954",
"@X c #BB8C55",
"#X c #BD8D56",
"$X c #BD8E56",
"%X c #BE8F57",
"&X c #C09058",
"*X c #C29158",
"=X c #C39259",
"-X c #C5945A",
";X c #C6945A",
":X c #C6955A",
">X c #C7955B",
",X c #C8965B",
"<X c #C9965B",
"1X c #C9975B",
"2X c #CB985C",
"3X c #CC985C",
"4X c #CC995C",
"5X c #CC995D",
"6X c #CD9A5D",
"7X c #D29D5F",
"8X c #D29E5F",
"9X c #D39E5F",
"0X c #D39E60",
"qX c #D6A061",
"wX c #D7A161",
"eX c #D8A262",
"rX c #D9A262",
"tX c #DAA362",
"yX c #DAA363",
"uX c #DBA463",
"iX c #DCA463",
"pX c #DCA563",
"aX c #DCA564",
"sX c #DDA564",
"dX c #DEA664",
/* pixels */
"                                                                ",
"                          = A A A A =                           ",
"                        0 ! H q.N 2.! 0                         ",
"                        0 @.2.B.m.H.@.0                         ",
"                        0 l P.#.B.2.A 0                         ",
"                        0 H 5.B.m.y.H 0                         ",
"                        e 2.2.B.#.P.&.e                         ",
"                    d d e 2.P.y.H.H.2.e d d                     ",
"                2 N H P 0 @.a.i.P.P.@.0 P A N 2                 ",
"                2 [ ! P 0 @.h.p.i.N.@.0 A h.[ 2                 ",
"                2 H H.N 0 b H.m.m.B.b 0 H 5.P 2                 ",
"                4 A k.A 0 Q.-X7X7X-XQ.0 H 2.H 4                 ",
"                * :.5.H r ].sX-X-XsX].r N P.&.*                 ",
"                * 9.x.T r ].rXqXqXrX].r b P.9.*                 ",
"            r r 6 T B.} r ].rX,X,XrX].r @.P.T 6 r r             ",
"          l A P r ! 2.} 4 Y.-X2X2X-XY.4 R P.T r H } l           ",
"        2 U @.H 0 @.B.l.` . e.e.e.e.. ` m.:.@.0 A a.U 2         ",
"        2 P l.N r E XXoXoX@X. d d . @XoXoXXXE r A 2.P 2         ",
"        2 H d.N 2 /.,XrX7X0X%Xx x %X0X7XrX,X/.2 A &.H 2         ",
"        # 5.:.A 2 ~.uX2XrX7XoXx x oX7XrX2XuX~.2 b c.5.#         ",
"        # 9.h.[ 2 ~.iX3X2XrXoXx x oXrX2X3XiX~.2 l B.9.#         ",
"        2 P m.&.2 !.%XiXuX,XXXx x XX,XuXiX%X!.2 &.B.P 2         ",
"        2 H -.x.N 0 !.~.~./.j k k j /.~.~.!.0 N &.B.H 2         ",
"        $ 2.f.m.y.! 2 % + + ! ! ! ! + + % 2 ! y.H.} 2.$         ",
"        2 N `.|.|.XXm.g 0 ( +X|.|.+X( 0 g m.XX|.|.`.N 2         ",
"        . E.-XsX0XrX-X0.r }.2XqXqX2X}.r 0.-XrX0XsX-XE..         ",
"        . T.qX=XuX,X=X` r ].rX0X0XrX].r ` =X,XuX=XqXT..         ",
"        . T.qX3X3X7X=X` r ].sX3X3XsX].r ` =X7X3X3XqXT..         ",
"        . T.%XsXuX7X=X` r ].=XiXiX=X].r ` =X7XuXsX%XT..         ",
"          g Q.(.(.).{ e 3 f _.(.(._.f 3 e { ).(.(.Q.g           ",
"            # + + +         + + + +         + + + #             ",
"                                                                "
};
